<svg xmlns="http://www.w3.org/2000/svg" xmlns:xlink="http://www.w3.org/1999/xlink" width="500" zoomAndPan="magnify" viewBox="0 0 375 374.999991" height="500" preserveAspectRatio="xMidYMid meet" version="1.0"><defs><g/><clipPath id="ef254d9886"><path d="M 6.8125 175 L 97 175 L 97 254.992188 L 6.8125 254.992188 Z M 6.8125 175 " clip-rule="nonzero"/></clipPath><clipPath id="1aed8a613b"><path d="M 96 134.242188 L 186.0625 134.242188 L 186.0625 214 L 96 214 Z M 96 134.242188 " clip-rule="nonzero"/></clipPath></defs><g clip-path="url(#ef254d9886)"><path fill="#3dcfb6" d="M 67.144531 231.660156 L 67.144531 242.566406 L 17.753906 219.621094 L 17.753906 210.769531 L 67.144531 187.824219 L 67.144531 198.734375 L 29.792969 215.089844 L 29.792969 215.296875 Z M 96.476562 175.703125 L 13.878906 175.703125 C 9.980469 175.703125 6.820312 178.867188 6.820312 182.765625 L 6.820312 247.625 C 6.820312 251.523438 9.980469 254.683594 13.878906 254.683594 L 73.550781 254.683594 L 96.476562 175.703125 " fill-opacity="1" fill-rule="nonzero"/></g><g clip-path="url(#1aed8a613b)"><path fill="#ffffff" d="M 175.070312 178.511719 L 125.679688 201.148438 L 125.679688 190.238281 L 163.851562 173.878906 L 163.851562 173.671875 L 125.679688 157.3125 L 125.679688 146.40625 L 175.070312 169.042969 Z M 119.410156 134.285156 L 96.476562 213.265625 L 178.941406 213.265625 C 182.84375 213.265625 186.003906 210.105469 186.003906 206.203125 L 186.003906 141.347656 C 186.003906 137.449219 182.84375 134.285156 178.941406 134.285156 L 119.410156 134.285156 " fill-opacity="1" fill-rule="nonzero"/></g><g fill="#ffffff" fill-opacity="1"><g transform="translate(188.262547, 174.520585)"><g><path d="M 20.09375 0.46875 C 17.601562 0.46875 15.28125 0.00390625 13.125 -0.921875 C 10.976562 -1.859375 9.078125 -3.148438 7.421875 -4.796875 C 5.773438 -6.453125 4.484375 -8.359375 3.546875 -10.515625 C 2.617188 -12.671875 2.15625 -14.988281 2.15625 -17.46875 C 2.15625 -19.957031 2.617188 -22.28125 3.546875 -24.4375 C 4.484375 -26.59375 5.773438 -28.492188 7.421875 -30.140625 C 9.078125 -31.785156 10.976562 -33.070312 13.125 -34 C 15.28125 -34.9375 17.601562 -35.40625 20.09375 -35.40625 C 22.582031 -35.40625 24.910156 -34.9375 27.078125 -34 C 29.253906 -33.070312 31.15625 -31.785156 32.78125 -30.140625 C 34.414062 -28.492188 35.695312 -26.59375 36.625 -24.4375 C 37.5625 -22.28125 38.03125 -19.957031 38.03125 -17.46875 C 38.03125 -14.988281 37.5625 -12.671875 36.625 -10.515625 C 35.695312 -8.359375 34.414062 -6.453125 32.78125 -4.796875 C 31.15625 -3.148438 29.253906 -1.859375 27.078125 -0.921875 C 24.910156 0.00390625 22.582031 0.46875 20.09375 0.46875 Z M 20.09375 -7.046875 C 22.070312 -7.046875 23.847656 -7.5 25.421875 -8.40625 C 26.992188 -9.320312 28.234375 -10.566406 29.140625 -12.140625 C 30.054688 -13.710938 30.515625 -15.488281 30.515625 -17.46875 C 30.515625 -19.445312 30.054688 -21.222656 29.140625 -22.796875 C 28.234375 -24.367188 26.992188 -25.609375 25.421875 -26.515625 C 23.847656 -27.429688 22.070312 -27.890625 20.09375 -27.890625 C 18.15625 -27.890625 16.398438 -27.429688 14.828125 -26.515625 C 13.253906 -25.609375 12.007812 -24.367188 11.09375 -22.796875 C 10.175781 -21.222656 9.71875 -19.445312 9.71875 -17.46875 C 9.71875 -15.488281 10.175781 -13.710938 11.09375 -12.140625 C 12.007812 -10.566406 13.253906 -9.320312 14.828125 -8.40625 C 16.398438 -7.5 18.15625 -7.046875 20.09375 -7.046875 Z M 20.09375 -7.046875 "/></g></g></g><g fill="#ffffff" fill-opacity="1"><g transform="translate(230.559169, 174.520585)"><g><path d="M 28.125 -34.9375 L 13.390625 -6.8125 L 28.125 -6.8125 L 28.125 0 L 1.34375 0 L 16.1875 -28.125 L 2.796875 -28.125 L 2.796875 -34.9375 Z M 28.125 -34.9375 "/></g></g></g><g fill="#ffffff" fill-opacity="1"><g transform="translate(262.430232, 174.520585)"><g><path d="M 24.8125 0 L 22.65625 -6.578125 L 9.609375 -6.578125 L 7.453125 0 L -0.75 0 L 11.828125 -34.9375 L 20.4375 -34.9375 L 33.015625 0 Z M 11.640625 -12.984375 L 20.625 -12.984375 L 16.140625 -26.84375 Z M 11.640625 -12.984375 "/></g></g></g><g fill="#ffffff" fill-opacity="1"><g transform="translate(296.747527, 174.520585)"><g><path d="M 28.53125 -34.9375 L 36.171875 -34.9375 L 36.171875 0 L 28.25 0 L 11.125 -23.1875 L 11.125 0 L 3.4375 0 L 3.4375 -34.9375 L 11.359375 -34.9375 L 28.53125 -11.828125 Z M 28.53125 -34.9375 "/></g></g></g><g fill="#ffffff" fill-opacity="1"><g transform="translate(338.481046, 174.520585)"><g/></g></g><g fill="#ffffff" fill-opacity="1"><g transform="translate(188.262547, 239.429331)"><g><path d="M 20.09375 0.46875 C 17.601562 0.46875 15.28125 0.00390625 13.125 -0.921875 C 10.976562 -1.859375 9.078125 -3.148438 7.421875 -4.796875 C 5.773438 -6.453125 4.484375 -8.359375 3.546875 -10.515625 C 2.617188 -12.671875 2.15625 -14.988281 2.15625 -17.46875 C 2.15625 -19.957031 2.617188 -22.28125 3.546875 -24.4375 C 4.484375 -26.59375 5.773438 -28.492188 7.421875 -30.140625 C 9.078125 -31.785156 10.976562 -33.070312 13.125 -34 C 15.28125 -34.9375 17.601562 -35.40625 20.09375 -35.40625 C 22.582031 -35.40625 24.910156 -34.9375 27.078125 -34 C 29.253906 -33.070312 31.15625 -31.785156 32.78125 -30.140625 C 34.414062 -28.492188 35.695312 -26.59375 36.625 -24.4375 C 37.5625 -22.28125 38.03125 -19.957031 38.03125 -17.46875 C 38.03125 -14.988281 37.5625 -12.671875 36.625 -10.515625 C 35.695312 -8.359375 34.414062 -6.453125 32.78125 -4.796875 C 31.15625 -3.148438 29.253906 -1.859375 27.078125 -0.921875 C 24.910156 0.00390625 22.582031 0.46875 20.09375 0.46875 Z M 20.09375 -7.046875 C 22.070312 -7.046875 23.847656 -7.5 25.421875 -8.40625 C 26.992188 -9.320312 28.234375 -10.566406 29.140625 -12.140625 C 30.054688 -13.710938 30.515625 -15.488281 30.515625 -17.46875 C 30.515625 -19.445312 30.054688 -21.222656 29.140625 -22.796875 C 28.234375 -24.367188 26.992188 -25.609375 25.421875 -26.515625 C 23.847656 -27.429688 22.070312 -27.890625 20.09375 -27.890625 C 18.15625 -27.890625 16.398438 -27.429688 14.828125 -26.515625 C 13.253906 -25.609375 12.007812 -24.367188 11.09375 -22.796875 C 10.175781 -21.222656 9.71875 -19.445312 9.71875 -17.46875 C 9.71875 -15.488281 10.175781 -13.710938 11.09375 -12.140625 C 12.007812 -10.566406 13.253906 -9.320312 14.828125 -8.40625 C 16.398438 -7.5 18.15625 -7.046875 20.09375 -7.046875 Z M 20.09375 -7.046875 "/></g></g></g><g fill="#ffffff" fill-opacity="1"><g transform="translate(230.559169, 239.429331)"><g><path d="M 21.671875 -14.390625 L 31.453125 0 L 22.828125 0 L 14.21875 -13.515625 L 11.125 -13.515625 L 11.125 0 L 3.4375 0 L 3.4375 -34.9375 L 18.28125 -34.9375 C 20.300781 -34.9375 22.085938 -34.460938 23.640625 -33.515625 C 25.191406 -32.566406 26.425781 -31.273438 27.34375 -29.640625 C 28.257812 -28.015625 28.71875 -26.210938 28.71875 -24.234375 C 28.71875 -21.859375 28.054688 -19.773438 26.734375 -17.984375 C 25.410156 -16.203125 23.722656 -15.003906 21.671875 -14.390625 Z M 17.125 -19.859375 C 18.363281 -19.859375 19.378906 -20.242188 20.171875 -21.015625 C 20.972656 -21.796875 21.375 -22.789062 21.375 -24 C 21.375 -25.195312 20.972656 -26.179688 20.171875 -26.953125 C 19.378906 -27.734375 18.363281 -28.125 17.125 -28.125 L 11.125 -28.125 L 11.125 -19.859375 Z M 17.125 -19.859375 "/></g></g></g><g fill="#ffffff" fill-opacity="1"><g transform="translate(263.769825, 239.429331)"><g><path d="M 25.328125 -34.9375 L 32.96875 -34.9375 L 32.96875 0 L 25.328125 0 L 25.328125 -14.09375 L 11.125 -14.09375 L 11.125 0 L 3.4375 0 L 3.4375 -34.9375 L 11.125 -34.9375 L 11.125 -20.90625 L 25.328125 -20.90625 Z M 25.328125 -34.9375 "/></g></g></g><g fill="#ffffff" fill-opacity="1"><g transform="translate(302.280633, 239.429331)"><g><path d="M 24.8125 0 L 22.65625 -6.578125 L 9.609375 -6.578125 L 7.453125 0 L -0.75 0 L 11.828125 -34.9375 L 20.4375 -34.9375 L 33.015625 0 Z M 11.640625 -12.984375 L 20.625 -12.984375 L 16.140625 -26.84375 Z M 11.640625 -12.984375 "/></g></g></g><g fill="#ffffff" fill-opacity="1"><g transform="translate(336.597927, 239.429331)"><g><path d="M 28.53125 -34.9375 L 36.171875 -34.9375 L 36.171875 0 L 28.25 0 L 11.125 -23.1875 L 11.125 0 L 3.4375 0 L 3.4375 -34.9375 L 11.359375 -34.9375 L 28.53125 -11.828125 Z M 28.53125 -34.9375 "/></g></g></g></svg>