<svg xmlns="http://www.w3.org/2000/svg" xmlns:xlink="http://www.w3.org/1999/xlink" width="500" zoomAndPan="magnify" viewBox="0 0 375 374.999991" height="500" preserveAspectRatio="xMidYMid meet" version="1.0"><defs><g/><clipPath id="81baafa3b3"><path d="M 187 164 L 219.988281 164 L 219.988281 184 L 187 184 Z M 187 164 " clip-rule="nonzero"/></clipPath><clipPath id="eb343bc1aa"><path d="M 8.488281 138.277344 L 207 138.277344 L 207 236.527344 L 8.488281 236.527344 Z M 8.488281 138.277344 " clip-rule="nonzero"/></clipPath><clipPath id="57b9366784"><path d="M 166 217 L 198 217 L 198 236.527344 L 166 236.527344 Z M 166 217 " clip-rule="nonzero"/></clipPath></defs><g clip-path="url(#81baafa3b3)"><path fill="#3dcfb6" d="M 210.105469 164.632812 L 196.921875 164.632812 C 191.585938 164.632812 187.242188 168.976562 187.242188 174.3125 C 187.242188 179.652344 191.585938 183.992188 196.921875 183.992188 L 210.105469 183.992188 C 215.441406 183.992188 219.78125 179.652344 219.78125 174.3125 C 219.78125 168.976562 215.441406 164.632812 210.105469 164.632812 Z M 210.105469 177.816406 L 196.921875 177.816406 C 194.992188 177.816406 193.421875 176.246094 193.421875 174.3125 C 193.421875 172.382812 194.992188 170.8125 196.921875 170.8125 L 210.105469 170.8125 C 212.035156 170.8125 213.605469 172.382812 213.605469 174.3125 C 213.605469 176.246094 212.035156 177.816406 210.105469 177.816406 Z M 210.105469 177.816406 " fill-opacity="1" fill-rule="nonzero"/></g><g clip-path="url(#eb343bc1aa)"><path fill="#3dcfb6" d="M 147.910156 217.355469 L 138.625 217.355469 C 136.679688 217.355469 135.027344 215.859375 134.941406 214.027344 C 134.894531 213.058594 135.238281 212.136719 135.902344 211.441406 C 136.570312 210.738281 137.472656 210.351562 138.4375 210.351562 L 175.917969 210.351562 C 181.253906 210.351562 185.597656 206.011719 185.597656 200.671875 C 185.597656 195.335938 181.253906 190.996094 175.917969 190.996094 L 149.332031 190.996094 C 147.386719 190.996094 145.738281 189.5 145.648438 187.667969 C 145.605469 186.695312 145.945312 185.777344 146.613281 185.078125 C 147.28125 184.378906 148.179688 183.992188 149.144531 183.992188 L 163.152344 183.992188 C 168.484375 183.992188 172.828125 179.652344 172.828125 174.3125 C 172.828125 168.976562 168.484375 164.632812 163.152344 164.632812 L 133.269531 164.632812 C 131.324219 164.632812 129.671875 163.140625 129.585938 161.308594 C 129.542969 160.335938 129.882812 159.417969 130.546875 158.71875 C 131.214844 158.019531 132.117188 157.632812 133.082031 157.632812 L 196.511719 157.632812 C 199.144531 157.632812 201.699219 156.539062 203.515625 154.636719 C 205.359375 152.703125 206.304688 150.164062 206.179688 147.488281 C 205.9375 142.324219 201.609375 138.273438 196.324219 138.273438 L 74.90625 138.273438 C 73.199219 138.273438 71.816406 139.660156 71.816406 141.363281 C 71.816406 143.070312 73.199219 144.453125 74.90625 144.453125 L 196.324219 144.453125 C 198.269531 144.453125 199.921875 145.949219 200.007812 147.78125 C 200.054688 148.75 199.710938 149.671875 199.042969 150.371094 C 198.378906 151.070312 197.476562 151.457031 196.511719 151.457031 L 133.082031 151.457031 C 130.449219 151.457031 127.898438 152.546875 126.082031 154.453125 C 124.234375 156.386719 123.289062 158.921875 123.414062 161.597656 C 123.660156 166.765625 127.988281 170.816406 133.269531 170.816406 L 163.152344 170.816406 C 165.078125 170.816406 166.648438 172.386719 166.648438 174.3125 C 166.648438 176.246094 165.078125 177.816406 163.152344 177.816406 L 149.144531 177.816406 C 146.511719 177.816406 143.960938 178.910156 142.144531 180.8125 C 140.296875 182.746094 139.351562 185.285156 139.476562 187.960938 C 139.722656 193.125 144.050781 197.175781 149.332031 197.175781 L 175.917969 197.175781 C 177.847656 197.175781 179.417969 198.746094 179.417969 200.675781 C 179.417969 202.605469 177.847656 204.175781 175.917969 204.175781 L 138.4375 204.175781 C 135.804688 204.175781 133.25 205.269531 131.433594 207.175781 C 129.589844 209.105469 128.644531 211.644531 128.769531 214.320312 C 129.011719 219.488281 133.34375 223.535156 138.625 223.535156 L 147.910156 223.535156 C 149.839844 223.535156 151.410156 225.105469 151.410156 227.035156 C 151.410156 228.96875 149.839844 230.535156 147.910156 230.535156 L 19.09375 230.535156 C 16.882812 230.535156 15.082031 228.734375 15.082031 226.527344 L 15.082031 162.988281 L 89.011719 162.988281 C 90.71875 162.988281 92.101562 161.605469 92.101562 159.898438 C 92.101562 158.191406 90.71875 156.808594 89.011719 156.808594 L 15.082031 156.808594 L 15.082031 148.464844 C 15.082031 146.253906 16.882812 144.453125 19.09375 144.453125 L 62.550781 144.453125 C 64.253906 144.453125 65.636719 143.070312 65.636719 141.363281 C 65.636719 139.660156 64.253906 138.273438 62.550781 138.273438 L 19.09375 138.273438 C 13.476562 138.273438 8.902344 142.847656 8.902344 148.464844 L 8.902344 226.523438 C 8.902344 232.144531 13.476562 236.710938 19.09375 236.710938 L 147.910156 236.710938 C 153.246094 236.710938 157.589844 232.371094 157.589844 227.03125 C 157.589844 221.695312 153.246094 217.355469 147.910156 217.355469 Z M 147.910156 217.355469 " fill-opacity="1" fill-rule="nonzero"/></g><g clip-path="url(#57b9366784)"><path fill="#3dcfb6" d="M 187.863281 217.355469 L 176.328125 217.355469 C 170.992188 217.355469 166.648438 221.695312 166.648438 227.035156 C 166.648438 232.371094 170.992188 236.710938 176.328125 236.710938 L 187.863281 236.710938 C 193.199219 236.710938 197.539062 232.371094 197.539062 227.035156 C 197.539062 221.695312 193.199219 217.355469 187.863281 217.355469 Z M 187.863281 230.535156 L 176.328125 230.535156 C 174.398438 230.535156 172.828125 228.964844 172.828125 227.035156 C 172.828125 225.105469 174.398438 223.535156 176.328125 223.535156 L 187.863281 223.535156 C 189.792969 223.535156 191.363281 225.105469 191.363281 227.035156 C 191.363281 228.964844 189.792969 230.535156 187.863281 230.535156 Z M 187.863281 230.535156 " fill-opacity="1" fill-rule="nonzero"/></g><path fill="#3dcfb6" d="M 115.371094 162.988281 C 117.078125 162.988281 118.460938 161.605469 118.460938 159.898438 C 118.460938 158.191406 117.078125 156.808594 115.371094 156.808594 L 101.78125 156.808594 C 100.074219 156.808594 98.691406 158.191406 98.691406 159.898438 C 98.691406 161.605469 100.074219 162.988281 101.78125 162.988281 Z M 115.371094 162.988281 " fill-opacity="1" fill-rule="nonzero"/><path fill="#3dcfb6" d="M 25.378906 151.25 C 25.378906 152.730469 24.179688 153.929688 22.703125 153.929688 C 21.222656 153.929688 20.023438 152.730469 20.023438 151.25 C 20.023438 149.769531 21.222656 148.570312 22.703125 148.570312 C 24.179688 148.570312 25.378906 149.769531 25.378906 151.25 Z M 25.378906 151.25 " fill-opacity="1" fill-rule="nonzero"/><path fill="#3dcfb6" d="M 35.261719 151.25 C 35.261719 152.730469 34.0625 153.929688 32.585938 153.929688 C 31.109375 153.929688 29.910156 152.730469 29.910156 151.25 C 29.910156 149.769531 31.109375 148.570312 32.585938 148.570312 C 34.0625 148.570312 35.261719 149.769531 35.261719 151.25 Z M 35.261719 151.25 " fill-opacity="1" fill-rule="nonzero"/><path fill="#3dcfb6" d="M 45.148438 151.25 C 45.148438 152.730469 43.949219 153.929688 42.472656 153.929688 C 40.992188 153.929688 39.792969 152.730469 39.792969 151.25 C 39.792969 149.769531 40.992188 148.570312 42.472656 148.570312 C 43.949219 148.570312 45.148438 149.769531 45.148438 151.25 Z M 45.148438 151.25 " fill-opacity="1" fill-rule="nonzero"/><path fill="#3dcfb6" d="M 32.917969 174.394531 C 31.710938 173.191406 29.753906 173.191406 28.546875 174.394531 L 19.691406 183.253906 C 18.488281 184.457031 18.488281 186.414062 19.691406 187.621094 L 28.960938 196.886719 C 29.5625 197.488281 30.355469 197.792969 31.144531 197.792969 C 31.933594 197.792969 32.726562 197.488281 33.328125 196.886719 C 34.535156 195.679688 34.535156 193.722656 33.328125 192.519531 L 26.246094 185.433594 L 32.917969 178.765625 C 34.121094 177.558594 34.121094 175.601562 32.917969 174.394531 Z M 32.917969 174.394531 " fill-opacity="1" fill-rule="nonzero"/><path fill="#3dcfb6" d="M 54.085938 196.886719 C 54.6875 197.488281 55.480469 197.792969 56.269531 197.792969 C 57.058594 197.792969 57.851562 197.488281 58.453125 196.886719 L 67.71875 187.621094 C 68.925781 186.414062 68.925781 184.457031 67.71875 183.253906 L 58.867188 174.394531 C 57.660156 173.191406 55.703125 173.191406 54.496094 174.394531 C 53.289062 175.601562 53.289062 177.558594 54.496094 178.765625 L 61.167969 185.433594 L 54.085938 192.519531 C 52.878906 193.722656 52.878906 195.679688 54.085938 196.886719 Z M 54.085938 196.886719 " fill-opacity="1" fill-rule="nonzero"/><path fill="#3dcfb6" d="M 39.171875 197.585938 C 40.257812 197.585938 41.308594 197.015625 41.875 196 L 51.757812 178.292969 C 52.589844 176.800781 52.054688 174.917969 50.566406 174.089844 C 49.078125 173.257812 47.195312 173.789062 46.363281 175.277344 L 36.480469 192.992188 C 35.648438 194.480469 36.179688 196.363281 37.671875 197.195312 C 38.148438 197.460938 38.664062 197.585938 39.171875 197.585938 Z M 39.171875 197.585938 " fill-opacity="1" fill-rule="nonzero"/><path fill="#3dcfb6" d="M 77.480469 193.878906 L 104.25 193.878906 C 105.957031 193.878906 107.339844 192.492188 107.339844 190.789062 C 107.339844 189.082031 105.957031 187.699219 104.25 187.699219 L 77.480469 187.699219 C 75.773438 187.699219 74.390625 189.082031 74.390625 190.789062 C 74.390625 192.492188 75.773438 193.878906 77.480469 193.878906 Z M 77.480469 193.878906 " fill-opacity="1" fill-rule="nonzero"/><path fill="#3dcfb6" d="M 77.480469 179.460938 L 80.777344 179.460938 C 82.480469 179.460938 83.863281 178.078125 83.863281 176.375 C 83.863281 174.667969 82.480469 173.285156 80.777344 173.285156 L 77.480469 173.285156 C 75.773438 173.285156 74.390625 174.667969 74.390625 176.375 C 74.390625 178.078125 75.773438 179.460938 77.480469 179.460938 Z M 77.480469 179.460938 " fill-opacity="1" fill-rule="nonzero"/><path fill="#3dcfb6" d="M 130.40625 190.789062 C 130.40625 189.082031 129.023438 187.699219 127.316406 187.699219 L 114.546875 187.699219 C 112.84375 187.699219 111.460938 189.082031 111.460938 190.789062 C 111.460938 192.492188 112.84375 193.878906 114.546875 193.878906 L 127.316406 193.878906 C 129.023438 193.878906 130.40625 192.492188 130.40625 190.789062 Z M 130.40625 190.789062 " fill-opacity="1" fill-rule="nonzero"/><path fill="#3dcfb6" d="M 83.453125 206.03125 C 83.453125 204.324219 82.070312 202.941406 80.363281 202.941406 L 30.9375 202.941406 C 29.234375 202.941406 27.851562 204.324219 27.851562 206.03125 C 27.851562 207.734375 29.234375 209.121094 30.9375 209.121094 L 80.363281 209.121094 C 82.070312 209.121094 83.453125 207.734375 83.453125 206.03125 Z M 83.453125 206.03125 " fill-opacity="1" fill-rule="nonzero"/><path fill="#3dcfb6" d="M 114.546875 202.941406 L 91.074219 202.941406 C 89.367188 202.941406 87.984375 204.324219 87.984375 206.03125 C 87.984375 207.734375 89.367188 209.121094 91.074219 209.121094 L 114.546875 209.121094 C 116.253906 209.121094 117.636719 207.734375 117.636719 206.03125 C 117.636719 204.324219 116.253906 202.941406 114.546875 202.941406 Z M 114.546875 202.941406 " fill-opacity="1" fill-rule="nonzero"/><path fill="#3dcfb6" d="M 30.9375 216.53125 C 29.234375 216.53125 27.851562 217.914062 27.851562 219.621094 C 27.851562 221.324219 29.234375 222.707031 30.9375 222.707031 L 47 222.707031 C 48.707031 222.707031 50.089844 221.324219 50.089844 219.621094 C 50.089844 217.914062 48.707031 216.53125 47 216.53125 Z M 30.9375 216.53125 " fill-opacity="1" fill-rule="nonzero"/><path fill="#3dcfb6" d="M 56.472656 216.53125 C 54.769531 216.53125 53.386719 217.914062 53.386719 219.621094 C 53.386719 221.324219 54.769531 222.707031 56.472656 222.707031 L 65.535156 222.707031 C 67.242188 222.707031 68.625 221.324219 68.625 219.621094 C 68.625 217.914062 67.242188 216.53125 65.535156 216.53125 Z M 56.472656 216.53125 " fill-opacity="1" fill-rule="nonzero"/><path fill="#3dcfb6" d="M 73.773438 222.707031 L 114.546875 222.707031 C 116.253906 222.707031 117.636719 221.324219 117.636719 219.621094 C 117.636719 217.914062 116.253906 216.53125 114.546875 216.53125 L 73.773438 216.53125 C 72.066406 216.53125 70.683594 217.914062 70.683594 219.621094 C 70.683594 221.324219 72.066406 222.707031 73.773438 222.707031 Z M 73.773438 222.707031 " fill-opacity="1" fill-rule="nonzero"/><path fill="#3dcfb6" d="M 87.160156 176.785156 C 87.160156 178.492188 88.542969 179.875 90.25 179.875 L 115.371094 179.875 C 117.078125 179.875 118.460938 178.492188 118.460938 176.785156 C 118.460938 175.078125 117.078125 173.695312 115.371094 173.695312 L 90.25 173.695312 C 88.542969 173.695312 87.160156 175.078125 87.160156 176.785156 Z M 87.160156 176.785156 " fill-opacity="1" fill-rule="nonzero"/><g fill="#ffffff" fill-opacity="1"><g transform="translate(214.683463, 169.416843)"><g><path d="M 27.046875 -16.25 C 27.046875 -12.820312 26.550781 -9.828125 25.5625 -7.265625 C 24.582031 -4.710938 23.128906 -2.726562 21.203125 -1.3125 C 19.273438 0.09375 16.890625 0.796875 14.046875 0.796875 C 11.222656 0.796875 8.84375 0.109375 6.90625 -1.265625 C 4.96875 -2.648438 3.503906 -4.613281 2.515625 -7.15625 C 1.535156 -9.707031 1.046875 -12.738281 1.046875 -16.25 C 1.046875 -19.6875 1.535156 -22.675781 2.515625 -25.21875 C 3.503906 -27.769531 4.96875 -29.75 6.90625 -31.15625 C 8.84375 -32.570312 11.222656 -33.28125 14.046875 -33.28125 C 16.890625 -33.28125 19.273438 -32.59375 21.203125 -31.21875 C 23.128906 -29.84375 24.582031 -27.882812 25.5625 -25.34375 C 26.550781 -22.800781 27.046875 -19.769531 27.046875 -16.25 Z M 19.1875 -16.25 C 19.1875 -20.25 18.785156 -23.15625 17.984375 -24.96875 C 17.191406 -26.78125 15.878906 -27.6875 14.046875 -27.6875 C 12.222656 -27.6875 10.910156 -26.773438 10.109375 -24.953125 C 9.316406 -23.140625 8.921875 -20.238281 8.921875 -16.25 C 8.921875 -12.257812 9.328125 -9.359375 10.140625 -7.546875 C 10.953125 -5.734375 12.253906 -4.828125 14.046875 -4.828125 C 15.921875 -4.828125 17.242188 -5.742188 18.015625 -7.578125 C 18.796875 -9.410156 19.1875 -12.300781 19.1875 -16.25 Z M 19.1875 -16.25 "/></g></g></g><g fill="#ffffff" fill-opacity="1"><g transform="translate(242.787439, 169.416843)"><g><path d="M 12.109375 -5.59375 L 24.5625 -5.59375 L 23.859375 0 L 3.375 0 L 3.375 -5.21875 L 15.71875 -19.296875 L 4.40625 -19.296875 L 4.40625 -24.875 L 24.328125 -24.875 L 24.328125 -19.671875 Z M 12.109375 -5.59375 "/></g></g></g><g fill="#ffffff" fill-opacity="1"><g transform="translate(270.891415, 169.416843)"><g><path d="M 24.21875 -7.171875 C 24.21875 -6.234375 24.34375 -5.550781 24.59375 -5.125 C 24.851562 -4.707031 25.273438 -4.390625 25.859375 -4.171875 L 24.328125 0.703125 C 22.867188 0.554688 21.632812 0.234375 20.625 -0.265625 C 19.613281 -0.773438 18.820312 -1.546875 18.25 -2.578125 C 17.289062 -1.429688 16.066406 -0.582031 14.578125 -0.03125 C 13.097656 0.519531 11.585938 0.796875 10.046875 0.796875 C 7.484375 0.796875 5.441406 0.0664062 3.921875 -1.390625 C 2.398438 -2.847656 1.640625 -4.726562 1.640625 -7.03125 C 1.640625 -9.726562 2.695312 -11.8125 4.8125 -13.28125 C 6.925781 -14.75 9.90625 -15.484375 13.75 -15.484375 L 17.09375 -15.484375 L 17.09375 -16.421875 C 17.09375 -17.710938 16.675781 -18.671875 15.84375 -19.296875 C 15.007812 -19.921875 13.785156 -20.234375 12.171875 -20.234375 C 11.378906 -20.234375 10.359375 -20.117188 9.109375 -19.890625 C 7.859375 -19.671875 6.609375 -19.347656 5.359375 -18.921875 L 3.65625 -23.84375 C 5.257812 -24.445312 6.929688 -24.90625 8.671875 -25.21875 C 10.421875 -25.53125 11.976562 -25.6875 13.34375 -25.6875 C 17.050781 -25.6875 19.789062 -24.929688 21.5625 -23.421875 C 23.332031 -21.921875 24.21875 -19.75 24.21875 -16.90625 Z M 12.59375 -4.5 C 13.394531 -4.5 14.234375 -4.734375 15.109375 -5.203125 C 15.984375 -5.679688 16.644531 -6.359375 17.09375 -7.234375 L 17.09375 -11.265625 L 15.265625 -11.265625 C 13.203125 -11.265625 11.6875 -10.945312 10.71875 -10.3125 C 9.757812 -9.6875 9.28125 -8.765625 9.28125 -7.546875 C 9.28125 -6.585938 9.570312 -5.835938 10.15625 -5.296875 C 10.738281 -4.765625 11.550781 -4.5 12.59375 -4.5 Z M 12.59375 -4.5 "/></g></g></g><g fill="#ffffff" fill-opacity="1"><g transform="translate(298.99539, 169.416843)"><g><path d="M 3.28125 0 L 3.28125 -24.875 L 9.75 -24.875 L 10.265625 -22 C 11.367188 -23.238281 12.535156 -24.160156 13.765625 -24.765625 C 15.003906 -25.378906 16.410156 -25.6875 17.984375 -25.6875 C 20.109375 -25.6875 21.78125 -25.039062 23 -23.75 C 24.21875 -22.457031 24.828125 -20.628906 24.828125 -18.265625 L 24.828125 0 L 17.421875 0 L 17.421875 -16.140625 C 17.421875 -17.148438 17.347656 -17.957031 17.203125 -18.5625 C 17.066406 -19.164062 16.820312 -19.59375 16.46875 -19.84375 C 16.125 -20.101562 15.644531 -20.234375 15.03125 -20.234375 C 14.519531 -20.234375 14.015625 -20.117188 13.515625 -19.890625 C 13.023438 -19.671875 12.546875 -19.347656 12.078125 -18.921875 C 11.617188 -18.503906 11.15625 -18 10.6875 -17.40625 L 10.6875 0 Z M 3.28125 0 "/></g></g></g><g fill="#ffffff" fill-opacity="1"><g transform="translate(327.101425, 169.416843)"><g/></g></g><g fill="#ffffff" fill-opacity="1"><g transform="translate(214.683463, 234.666839)"><g><path d="M 27.046875 -16.25 C 27.046875 -12.820312 26.550781 -9.828125 25.5625 -7.265625 C 24.582031 -4.710938 23.128906 -2.726562 21.203125 -1.3125 C 19.273438 0.09375 16.890625 0.796875 14.046875 0.796875 C 11.222656 0.796875 8.84375 0.109375 6.90625 -1.265625 C 4.96875 -2.648438 3.503906 -4.613281 2.515625 -7.15625 C 1.535156 -9.707031 1.046875 -12.738281 1.046875 -16.25 C 1.046875 -19.6875 1.535156 -22.675781 2.515625 -25.21875 C 3.503906 -27.769531 4.96875 -29.75 6.90625 -31.15625 C 8.84375 -32.570312 11.222656 -33.28125 14.046875 -33.28125 C 16.890625 -33.28125 19.273438 -32.59375 21.203125 -31.21875 C 23.128906 -29.84375 24.582031 -27.882812 25.5625 -25.34375 C 26.550781 -22.800781 27.046875 -19.769531 27.046875 -16.25 Z M 19.1875 -16.25 C 19.1875 -20.25 18.785156 -23.15625 17.984375 -24.96875 C 17.191406 -26.78125 15.878906 -27.6875 14.046875 -27.6875 C 12.222656 -27.6875 10.910156 -26.773438 10.109375 -24.953125 C 9.316406 -23.140625 8.921875 -20.238281 8.921875 -16.25 C 8.921875 -12.257812 9.328125 -9.359375 10.140625 -7.546875 C 10.953125 -5.734375 12.253906 -4.828125 14.046875 -4.828125 C 15.921875 -4.828125 17.242188 -5.742188 18.015625 -7.578125 C 18.796875 -9.410156 19.1875 -12.300781 19.1875 -16.25 Z M 19.1875 -16.25 "/></g></g></g><g fill="#ffffff" fill-opacity="1"><g transform="translate(242.787439, 234.666839)"><g><path d="M 3.515625 0 L 3.515625 -4.96875 L 6.796875 -4.96875 L 6.796875 -19.953125 L 3.515625 -19.953125 L 3.515625 -24.875 L 12.4375 -24.875 L 13.796875 -19.28125 C 14.679688 -21.414062 15.816406 -23.003906 17.203125 -24.046875 C 18.585938 -25.097656 20.28125 -25.625 22.28125 -25.625 C 23.113281 -25.625 23.859375 -25.554688 24.515625 -25.421875 C 25.171875 -25.285156 25.789062 -25.101562 26.375 -24.875 L 24.125 -18.765625 C 23.664062 -18.890625 23.210938 -18.984375 22.765625 -19.046875 C 22.316406 -19.109375 21.816406 -19.140625 21.265625 -19.140625 C 19.640625 -19.140625 18.210938 -18.472656 16.984375 -17.140625 C 15.765625 -15.816406 14.832031 -14.128906 14.1875 -12.078125 L 14.1875 -4.96875 L 19.109375 -4.96875 L 19.109375 0 Z M 20.359375 -14.46875 L 20.359375 -21.734375 L 21.453125 -24.875 L 26.375 -24.875 L 24.984375 -14.46875 Z M 20.359375 -14.46875 "/></g></g></g><g fill="#ffffff" fill-opacity="1"><g transform="translate(270.891415, 234.666839)"><g><path d="M 10.6875 -35.484375 L 10.6875 -22.421875 C 11.726562 -23.523438 12.859375 -24.34375 14.078125 -24.875 C 15.304688 -25.414062 16.609375 -25.6875 17.984375 -25.6875 C 20.203125 -25.6875 21.894531 -25.039062 23.0625 -23.75 C 24.238281 -22.457031 24.828125 -20.628906 24.828125 -18.265625 L 24.828125 0 L 17.421875 0 L 17.421875 -16.203125 C 17.421875 -17.703125 17.253906 -18.75 16.921875 -19.34375 C 16.585938 -19.9375 15.957031 -20.234375 15.03125 -20.234375 C 14.519531 -20.234375 14.015625 -20.113281 13.515625 -19.875 C 13.023438 -19.632812 12.546875 -19.285156 12.078125 -18.828125 C 11.617188 -18.378906 11.15625 -17.84375 10.6875 -17.21875 L 10.6875 0 L 3.28125 0 L 3.28125 -34.765625 Z M 10.6875 -35.484375 "/></g></g></g><g fill="#ffffff" fill-opacity="1"><g transform="translate(298.99539, 234.666839)"><g><path d="M 24.21875 -7.171875 C 24.21875 -6.234375 24.34375 -5.550781 24.59375 -5.125 C 24.851562 -4.707031 25.273438 -4.390625 25.859375 -4.171875 L 24.328125 0.703125 C 22.867188 0.554688 21.632812 0.234375 20.625 -0.265625 C 19.613281 -0.773438 18.820312 -1.546875 18.25 -2.578125 C 17.289062 -1.429688 16.066406 -0.582031 14.578125 -0.03125 C 13.097656 0.519531 11.585938 0.796875 10.046875 0.796875 C 7.484375 0.796875 5.441406 0.0664062 3.921875 -1.390625 C 2.398438 -2.847656 1.640625 -4.726562 1.640625 -7.03125 C 1.640625 -9.726562 2.695312 -11.8125 4.8125 -13.28125 C 6.925781 -14.75 9.90625 -15.484375 13.75 -15.484375 L 17.09375 -15.484375 L 17.09375 -16.421875 C 17.09375 -17.710938 16.675781 -18.671875 15.84375 -19.296875 C 15.007812 -19.921875 13.785156 -20.234375 12.171875 -20.234375 C 11.378906 -20.234375 10.359375 -20.117188 9.109375 -19.890625 C 7.859375 -19.671875 6.609375 -19.347656 5.359375 -18.921875 L 3.65625 -23.84375 C 5.257812 -24.445312 6.929688 -24.90625 8.671875 -25.21875 C 10.421875 -25.53125 11.976562 -25.6875 13.34375 -25.6875 C 17.050781 -25.6875 19.789062 -24.929688 21.5625 -23.421875 C 23.332031 -21.921875 24.21875 -19.75 24.21875 -16.90625 Z M 12.59375 -4.5 C 13.394531 -4.5 14.234375 -4.734375 15.109375 -5.203125 C 15.984375 -5.679688 16.644531 -6.359375 17.09375 -7.234375 L 17.09375 -11.265625 L 15.265625 -11.265625 C 13.203125 -11.265625 11.6875 -10.945312 10.71875 -10.3125 C 9.757812 -9.6875 9.28125 -8.765625 9.28125 -7.546875 C 9.28125 -6.585938 9.570312 -5.835938 10.15625 -5.296875 C 10.738281 -4.765625 11.550781 -4.5 12.59375 -4.5 Z M 12.59375 -4.5 "/></g></g></g><g fill="#ffffff" fill-opacity="1"><g transform="translate(327.099366, 234.666839)"><g><path d="M 3.28125 0 L 3.28125 -24.875 L 9.75 -24.875 L 10.265625 -22 C 11.367188 -23.238281 12.535156 -24.160156 13.765625 -24.765625 C 15.003906 -25.378906 16.410156 -25.6875 17.984375 -25.6875 C 20.109375 -25.6875 21.78125 -25.039062 23 -23.75 C 24.21875 -22.457031 24.828125 -20.628906 24.828125 -18.265625 L 24.828125 0 L 17.421875 0 L 17.421875 -16.140625 C 17.421875 -17.148438 17.347656 -17.957031 17.203125 -18.5625 C 17.066406 -19.164062 16.820312 -19.59375 16.46875 -19.84375 C 16.125 -20.101562 15.644531 -20.234375 15.03125 -20.234375 C 14.519531 -20.234375 14.015625 -20.117188 13.515625 -19.890625 C 13.023438 -19.671875 12.546875 -19.347656 12.078125 -18.921875 C 11.617188 -18.503906 11.15625 -18 10.6875 -17.40625 L 10.6875 0 Z M 3.28125 0 "/></g></g></g></svg>