<svg width="56" height="53" viewBox="0 0 56 53" fill="none" xmlns="http://www.w3.org/2000/svg">
<path fill-rule="evenodd" clip-rule="evenodd" d="M54.7991 13.769L49.8363 20.7081L44.8735 13.769H47.5794C47.3731 8.61323 43.1141 4.48858 37.9086 4.48858C33.5161 4.48858 29.791 7.43649 28.614 11.452C27.1822 10.991 25.7019 10.6998 24.1973 10.5664C24.3671 9.92341 24.5856 9.28045 24.8525 8.66175C25.5684 6.9755 26.5877 5.45909 27.886 4.16104C29.1843 2.86299 30.7011 1.83183 32.3877 1.12821C34.135 0.376071 35.9915 0 37.9086 0C39.8258 0 41.6823 0.37607 43.4296 1.11608C45.1162 1.83183 46.6329 2.85086 47.9312 4.14891C49.2296 5.44696 50.2488 6.96337 50.9647 8.64962C51.6564 10.2752 52.0325 11.9979 52.0689 13.769H54.7991Z" fill="white"/>
<path fill-rule="evenodd" clip-rule="evenodd" d="M47.8681 52.4091V49.4248H30.7593C30.8806 49.3642 31.002 49.3157 31.1233 49.255C32.9798 48.3694 34.6907 47.2169 36.2195 45.8097C36.4258 45.6156 36.62 45.4336 36.802 45.2517C37.0083 45.0454 37.2267 44.8271 37.4329 44.5966C37.6756 44.3297 37.9183 44.0507 38.1367 43.7717H47.8681V40.7874L55.9979 46.5982L47.8681 52.4091Z" fill="white"/>
<path fill-rule="evenodd" clip-rule="evenodd" d="M41.5587 30.8508C41.5587 33.4347 41.0491 35.9459 40.0541 38.3115C39.2047 40.3253 38.0156 42.1693 36.5353 43.7827C36.3411 43.989 36.147 44.1952 35.9528 44.4014C35.7708 44.5834 35.5888 44.7532 35.4068 44.9352C33.975 46.2575 32.3733 47.3372 30.626 48.1743C30.3834 48.2956 30.1286 48.4048 29.8737 48.514C29.8616 48.514 29.8616 48.5261 29.8495 48.5261C28.3934 49.1448 26.8281 49.4481 25.2386 49.4481H0V43.807H23.4306C30.5168 43.807 36.329 38.1417 36.4261 31.057C36.4261 30.9963 36.4261 30.9357 36.4261 30.875C36.4261 23.1353 30.1407 16.8512 22.3992 16.8512C14.6578 16.827 8.37241 23.0989 8.37241 30.8508H11.6243L5.81215 38.9787L0 30.8508H3.25189C3.25189 28.2668 3.76152 25.7556 4.7565 23.39C5.72722 21.1093 7.09835 19.0591 8.85777 17.3001C10.6172 15.5411 12.6678 14.1581 14.949 13.1997C17.3151 12.2049 19.8268 11.6954 22.4114 11.6954C22.9331 11.6954 23.4428 11.7197 23.9524 11.7561C25.457 11.8774 26.9252 12.1686 28.357 12.6417C28.8666 12.8115 29.3641 12.9935 29.8616 13.2118C32.1428 14.1824 34.1934 15.5532 35.9528 17.3122C37.7123 19.0713 39.0955 21.1215 40.0541 23.4021C41.0491 25.7556 41.5587 28.2668 41.5587 30.8508Z" fill="white"/>
</svg>
